# xmcd
#
# Track frame offsets:
#  150
#  13015
#  27414
#  42402
#  58654
#  75469
#  91406
#  114688
#  128798
#  148489
#  168493
#  183389
#  198090
#  211895
#
# Disc length: 3065 seconds
#
# Revision: 0
# Processed by: cddbd v1.5.1PL2 Copyright (c) Steve Scherf et al.
# Submitted via: Collectorz.com_Music_Collector 6.11
#
DISCID=c50bf70e
DTITLE=Tony Luke - They Call It The Blues
DYEAR=1996
DGENRE=Blues
TTITLE0=Inspiration
TTITLE1=Life Ain't Good Enough (For You)
TTITLE2=Magnolia
TTITLE3=Little Red Rooster
TTITLE4=Call It Stormy Monday
TTITLE5=Let It Rain
TTITLE6=Long, Long Time
TTITLE7=Oh Atlanta
TTITLE8=Wee Wee Hours
TTITLE9=Never Ending Circles
TTITLE10=Crossroads
TTITLE11=I Shall Be Released
TTITLE12=Polk Salad Annie
TTITLE13=They Call It The Blues
EXTD=
EXTT0=
EXTT1=
EXTT2=
EXTT3=
EXTT4=
EXTT5=
EXTT6=
EXTT7=
EXTT8=
EXTT9=
EXTT10=
EXTT11=
EXTT12=
EXTT13=
PLAYORDER=
